<svg version="1.1" width="1024" height="1024" xmlns="http://www.w3.org/2000/svg">
<style>
        text {
            font-family: "Helvetica Neue", Helvetica, Arial, sans-serif;
            text-anchor: middle;
            dominant-baseline: central
        }
        text.v {
            font-size: 86.044444444444px
        }
        text.p {
            font-size: 35.493333333333px
        }
        line.p {
            stroke-width: 3px;
            stroke: #ff3a00;
        }
        line.a {
            stroke-width: 4px;
            stroke-linecap: round;
        }
</style>
<rect width="100%" height="100%" fill="black"/><path d="M8 8h107v107h-107zM8 119h107v107h-107zM8 231h107v107h-107zM8 458h107v107h-107zM8 569h107v107h-107zM8 685h107v107h-107zM8 796h107v107h-107zM8 908h107v107h-107zM119 8h107v107h-107zM119 119h107v107h-107zM119 231h107v107h-107zM119 346h107v107h-107zM119 458h107v107h-107zM119 569h107v107h-107zM119 685h107v107h-107zM119 796h107v107h-107zM119 908h107v107h-107zM231 119h107v107h-107zM231 231h107v107h-107zM231 346h107v107h-107zM231 458h107v107h-107zM231 569h107v107h-107zM231 685h107v107h-107zM231 796h107v107h-107zM231 908h107v107h-107zM346 8h107v107h-107zM346 119h107v107h-107zM346 231h107v107h-107zM346 346h107v107h-107zM346 458h107v107h-107zM346 569h107v107h-107zM346 685h107v107h-107zM346 796h107v107h-107zM346 908h107v107h-107zM458 8h107v107h-107zM458 119h107v107h-107zM458 231h107v107h-107zM458 346h107v107h-107zM458 458h107v107h-107zM458 569h107v107h-107zM458 685h107v107h-107zM458 796h107v107h-107zM458 908h107v107h-107zM569 8h107v107h-107zM569 119h107v107h-107zM569 231h107v107h-107zM569 346h107v107h-107zM569 458h107v107h-107zM569 569h107v107h-107zM569 685h107v107h-107zM569 796h107v107h-107zM569 908h107v107h-107zM685 8h107v107h-107zM685 119h107v107h-107zM685 231h107v107h-107zM685 346h107v107h-107zM685 458h107v107h-107zM685 569h107v107h-107zM685 685h107v107h-107zM685 796h107v107h-107zM685 908h107v107h-107zM796 8h107v107h-107zM796 119h107v107h-107zM796 231h107v107h-107zM796 346h107v107h-107zM796 458h107v107h-107zM796 569h107v107h-107zM796 685h107v107h-107zM796 796h107v107h-107zM796 908h107v107h-107zM908 8h107v107h-107zM908 119h107v107h-107zM908 231h107v107h-107zM908 346h107v107h-107zM908 458h107v107h-107zM908 569h107v107h-107zM908 685h107v107h-107zM908 796h107v107h-107zM908 908h107v107h-107z" fill="#fff"/><path d="M8 346h107v107h-107zM231 8h107v107h-107z" fill="#caff9c"/><text x="25" y="61" class="p" fill="#000">4</text><text x="97" y="61" class="p" fill="#000">6</text><text x="25" y="97" class="p" fill="#000">7</text><text x="61" y="97" class="p" fill="#000">8</text><text x="97" y="173" class="p" fill="#000">6</text><text x="61" y="209" class="p" fill="#000">8</text><text x="25" y="284" class="p" fill="#ff3a00">4</text><line x1="12" y1="291" x2="39" y2="278"  class="p"/><text x="25" y="320" class="p" fill="#0000ff">7</text><text x="61" y="400" class="p" fill="#0000ff">5</text><text x="25" y="436" class="p" fill="#ff3a00">7</text><line x1="12" y1="443" x2="39" y2="429"  class="p"/><text x="25" y="476" class="p" fill="#000">1</text><text x="61" y="476" class="p" fill="#000">2</text><text x="97" y="476" class="p" fill="#000">3</text><text x="61" y="623" class="p" fill="#000">5</text><text x="97" y="623" class="p" fill="#000">6</text><text x="25" y="659" class="p" fill="#000">7</text><text x="61" y="703" class="p" fill="#000">2</text><text x="97" y="774" class="p" fill="#000">9</text><text x="61" y="814" class="p" fill="#000">2</text><text x="97" y="814" class="p" fill="#000">3</text><text x="25" y="926" class="p" fill="#000">1</text><text x="61" y="926" class="p" fill="#000">2</text><text x="97" y="926" class="p" fill="#000">3</text><text x="97" y="998" class="p" fill="#000">9</text><text x="137" y="25" class="p" fill="#000">1</text><text x="173" y="25" class="p" fill="#000">2</text><text x="209" y="61" class="p" fill="#000">6</text><text x="137" y="97" class="p" fill="#000">7</text><text x="173" y="173" class="v" fill="#000">3</text><text x="137" y="249" class="p" fill="#000">1</text><text x="173" y="249" class="p" fill="#000">2</text><text x="137" y="320" class="p" fill="#000">7</text><text x="173" y="400" class="v" fill="#000">9</text><text x="137" y="476" class="p" fill="#000">1</text><text x="173" y="476" class="p" fill="#000">2</text><text x="209" y="623" class="p" fill="#000">6</text><text x="137" y="659" class="p" fill="#000">7</text><text x="173" y="739" class="v" fill="#000">4</text><text x="173" y="850" class="v" fill="#000">8</text><text x="173" y="962" class="v" fill="#000">5</text><text x="249" y="25" class="p" fill="#ff3a00">1</text><line x1="235" y1="32" x2="262" y2="19"  class="p"/><text x="284" y="25" class="p" fill="#0000ff">2</text><text x="284" y="173" class="v" fill="#000">9</text><text x="284" y="284" class="v" fill="#000">5</text><text x="249" y="364" class="p" fill="#0000ff">1</text><text x="249" y="400" class="p" fill="#ff3a00">4</text><line x1="235" y1="407" x2="262" y2="393"  class="p"/><text x="284" y="512" class="v" fill="#000">8</text><text x="320" y="587" class="p" fill="#000">3</text><text x="249" y="623" class="p" fill="#000">4</text><text x="284" y="739" class="v" fill="#000">6</text><text x="284" y="850" class="v" fill="#000">7</text><text x="249" y="926" class="p" fill="#000">1</text><text x="284" y="926" class="p" fill="#000">2</text><text x="320" y="926" class="p" fill="#000">3</text><text x="400" y="61" class="v" fill="#000">5</text><text x="436" y="173" class="p" fill="#000">6</text><text x="400" y="209" class="p" fill="#000">8</text><text x="400" y="249" class="p" fill="#000">2</text><text x="364" y="320" class="p" fill="#000">7</text><text x="400" y="400" class="v" fill="#000">3</text><text x="400" y="512" class="v" fill="#000">9</text><text x="364" y="623" class="p" fill="#000">4</text><text x="364" y="659" class="p" fill="#000">7</text><text x="400" y="739" class="v" fill="#000">1</text><text x="400" y="814" class="p" fill="#000">2</text><text x="364" y="850" class="p" fill="#000">4</text><text x="436" y="850" class="p" fill="#000">6</text><text x="400" y="926" class="p" fill="#000">2</text><text x="364" y="962" class="p" fill="#000">4</text><text x="436" y="962" class="p" fill="#000">6</text><text x="400" y="998" class="p" fill="#000">8</text><text x="547" y="61" class="p" fill="#000">6</text><text x="512" y="97" class="p" fill="#000">8</text><text x="512" y="173" class="v" fill="#000">4</text><text x="512" y="284" class="v" fill="#000">3</text><text x="512" y="400" class="v" fill="#000">2</text><text x="512" y="512" class="v" fill="#000">5</text><text x="512" y="623" class="v" fill="#000">1</text><text x="476" y="774" class="p" fill="#000">7</text><text x="512" y="774" class="p" fill="#000">8</text><text x="512" y="850" class="v" fill="#000">9</text><text x="547" y="962" class="p" fill="#000">6</text><text x="476" y="998" class="p" fill="#000">7</text><text x="512" y="998" class="p" fill="#000">8</text><text x="623" y="25" class="p" fill="#ff3a00">2</text><line x1="610" y1="32" x2="637" y2="19"  class="p"/><text x="587" y="97" class="p" fill="#0000ff">7</text><text x="623" y="173" class="v" fill="#000">1</text><text x="623" y="284" class="v" fill="#000">9</text><text x="587" y="400" class="p" fill="#0000ff">4</text><text x="587" y="436" class="p" fill="#ff3a00">7</text><line x1="574" y1="443" x2="601" y2="429"  class="p"/><text x="623" y="512" class="v" fill="#000">6</text><text x="623" y="623" class="v" fill="#000">8</text><text x="623" y="739" class="v" fill="#000">5</text><text x="623" y="814" class="p" fill="#000">2</text><text x="659" y="814" class="p" fill="#000">3</text><text x="587" y="850" class="p" fill="#000">4</text><text x="623" y="926" class="p" fill="#000">2</text><text x="659" y="926" class="p" fill="#000">3</text><text x="587" y="962" class="p" fill="#000">4</text><text x="703" y="25" class="p" fill="#0000ff">1</text><text x="703" y="61" class="p" fill="#ff3a00">4</text><line x1="689" y1="68" x2="716" y2="55"  class="p"/><text x="739" y="173" class="v" fill="#000">2</text><text x="739" y="284" class="v" fill="#000">6</text><text x="703" y="364" class="p" fill="#ff3a00">1</text><line x1="689" y1="371" x2="716" y2="357"  class="p"/><text x="739" y="436" class="p" fill="#0000ff">8</text><text x="739" y="512" class="v" fill="#000">7</text><text x="739" y="623" class="v" fill="#000">9</text><text x="739" y="739" class="v" fill="#000">3</text><text x="739" y="850" class="v" fill="#000">5</text><text x="703" y="962" class="p" fill="#0000ff">4</text><text x="739" y="998" class="p" fill="#ff3a00">8</text><line x1="725" y1="1004" x2="752" y2="991"  class="p"/><text x="850" y="61" class="v" fill="#000">3</text><text x="850" y="173" class="v" fill="#000">5</text><text x="850" y="284" class="v" fill="#000">8</text><text x="850" y="400" class="v" fill="#000">6</text><text x="850" y="512" class="v" fill="#000">4</text><text x="850" y="623" class="v" fill="#000">2</text><text x="814" y="774" class="p" fill="#000">7</text><text x="886" y="774" class="p" fill="#000">9</text><text x="850" y="850" class="v" fill="#000">1</text><text x="814" y="998" class="p" fill="#000">7</text><text x="886" y="998" class="p" fill="#000">9</text><text x="962" y="61" class="v" fill="#000">9</text><text x="962" y="173" class="v" fill="#000">7</text><text x="926" y="249" class="p" fill="#ff3a00">1</text><line x1="912" y1="255" x2="939" y2="242"  class="p"/><text x="926" y="284" class="p" fill="#0000ff">4</text><text x="926" y="364" class="p" fill="#000">1</text><text x="962" y="400" class="p" fill="#000">5</text><text x="962" y="436" class="p" fill="#000">8</text><text x="926" y="476" class="p" fill="#000">1</text><text x="998" y="476" class="p" fill="#000">3</text><text x="998" y="587" class="p" fill="#000">3</text><text x="962" y="623" class="p" fill="#000">5</text><text x="962" y="703" class="p" fill="#000">2</text><text x="962" y="774" class="p" fill="#000">8</text><text x="962" y="814" class="p" fill="#000">2</text><text x="926" y="850" class="p" fill="#000">4</text><text x="998" y="850" class="p" fill="#000">6</text><text x="962" y="926" class="p" fill="#000">2</text><text x="926" y="962" class="p" fill="#000">4</text><text x="998" y="962" class="p" fill="#000">6</text><text x="962" y="998" class="p" fill="#000">8</text><line x1="283" y1="60" x2="622" y2="60" stroke="#0000ff" class="a"/><line x1="602" y1="80" x2="622" y2="60" stroke="#0000ff" class="a"/><line x1="622" y1="60" x2="602" y2="40" stroke="#0000ff" class="a"/><line x1="283" y1="61" x2="622" y2="61" stroke="#0000ff" class="a"/><line x1="602" y1="81" x2="622" y2="61" stroke="#0000ff" class="a"/><line x1="622" y1="61" x2="602" y2="41" stroke="#0000ff" class="a"/><line x1="283" y1="62" x2="622" y2="62" stroke="#0000ff" class="a"/><line x1="602" y1="82" x2="622" y2="62" stroke="#0000ff" class="a"/><line x1="622" y1="62" x2="602" y2="42" stroke="#0000ff" class="a"/><line x1="284" y1="60" x2="623" y2="60" stroke="#0000ff" class="a"/><line x1="603" y1="80" x2="623" y2="60" stroke="#0000ff" class="a"/><line x1="623" y1="60" x2="603" y2="40" stroke="#0000ff" class="a"/><line x1="284" y1="61" x2="623" y2="61" stroke="#0000ff" class="a"/><line x1="603" y1="81" x2="623" y2="61" stroke="#0000ff" class="a"/><line x1="623" y1="61" x2="603" y2="41" stroke="#0000ff" class="a"/><line x1="284" y1="62" x2="623" y2="62" stroke="#0000ff" class="a"/><line x1="603" y1="82" x2="623" y2="62" stroke="#0000ff" class="a"/><line x1="623" y1="62" x2="603" y2="42" stroke="#0000ff" class="a"/><line x1="285" y1="60" x2="624" y2="60" stroke="#0000ff" class="a"/><line x1="604" y1="80" x2="624" y2="60" stroke="#0000ff" class="a"/><line x1="624" y1="60" x2="604" y2="40" stroke="#0000ff" class="a"/><line x1="285" y1="61" x2="624" y2="61" stroke="#0000ff" class="a"/><line x1="604" y1="81" x2="624" y2="61" stroke="#0000ff" class="a"/><line x1="624" y1="61" x2="604" y2="41" stroke="#0000ff" class="a"/><line x1="285" y1="62" x2="624" y2="62" stroke="#0000ff" class="a"/><line x1="604" y1="82" x2="624" y2="62" stroke="#0000ff" class="a"/><line x1="624" y1="62" x2="604" y2="42" stroke="#0000ff" class="a"/><line x1="622" y1="60" x2="622" y2="399" stroke="#0000ff" class="a"/><line x1="602" y1="379" x2="622" y2="399" stroke="#0000ff" class="a"/><line x1="622" y1="399" x2="642" y2="379" stroke="#0000ff" class="a"/><line x1="622" y1="61" x2="622" y2="400" stroke="#0000ff" class="a"/><line x1="602" y1="380" x2="622" y2="400" stroke="#0000ff" class="a"/><line x1="622" y1="400" x2="642" y2="380" stroke="#0000ff" class="a"/><line x1="622" y1="62" x2="622" y2="401" stroke="#0000ff" class="a"/><line x1="602" y1="381" x2="622" y2="401" stroke="#0000ff" class="a"/><line x1="622" y1="401" x2="642" y2="381" stroke="#0000ff" class="a"/><line x1="623" y1="60" x2="623" y2="399" stroke="#0000ff" class="a"/><line x1="603" y1="379" x2="623" y2="399" stroke="#0000ff" class="a"/><line x1="623" y1="399" x2="643" y2="379" stroke="#0000ff" class="a"/><line x1="623" y1="61" x2="623" y2="400" stroke="#0000ff" class="a"/><line x1="603" y1="380" x2="623" y2="400" stroke="#0000ff" class="a"/><line x1="623" y1="400" x2="643" y2="380" stroke="#0000ff" class="a"/><line x1="623" y1="62" x2="623" y2="401" stroke="#0000ff" class="a"/><line x1="603" y1="381" x2="623" y2="401" stroke="#0000ff" class="a"/><line x1="623" y1="401" x2="643" y2="381" stroke="#0000ff" class="a"/><line x1="624" y1="60" x2="624" y2="399" stroke="#0000ff" class="a"/><line x1="604" y1="379" x2="624" y2="399" stroke="#0000ff" class="a"/><line x1="624" y1="399" x2="644" y2="379" stroke="#0000ff" class="a"/><line x1="624" y1="61" x2="624" y2="400" stroke="#0000ff" class="a"/><line x1="604" y1="380" x2="624" y2="400" stroke="#0000ff" class="a"/><line x1="624" y1="400" x2="644" y2="380" stroke="#0000ff" class="a"/><line x1="624" y1="62" x2="624" y2="401" stroke="#0000ff" class="a"/><line x1="604" y1="381" x2="624" y2="401" stroke="#0000ff" class="a"/><line x1="624" y1="401" x2="644" y2="381" stroke="#0000ff" class="a"/><line x1="622" y1="399" x2="283" y2="399" stroke="#0000ff" class="a"/><line x1="303" y1="379" x2="283" y2="399" stroke="#0000ff" class="a"/><line x1="283" y1="399" x2="303" y2="419" stroke="#0000ff" class="a"/><line x1="622" y1="400" x2="283" y2="400" stroke="#0000ff" class="a"/><line x1="303" y1="380" x2="283" y2="400" stroke="#0000ff" class="a"/><line x1="283" y1="400" x2="303" y2="420" stroke="#0000ff" class="a"/><line x1="622" y1="401" x2="283" y2="401" stroke="#0000ff" class="a"/><line x1="303" y1="381" x2="283" y2="401" stroke="#0000ff" class="a"/><line x1="283" y1="401" x2="303" y2="421" stroke="#0000ff" class="a"/><line x1="623" y1="399" x2="284" y2="399" stroke="#0000ff" class="a"/><line x1="304" y1="379" x2="284" y2="399" stroke="#0000ff" class="a"/><line x1="284" y1="399" x2="304" y2="419" stroke="#0000ff" class="a"/><line x1="623" y1="400" x2="284" y2="400" stroke="#0000ff" class="a"/><line x1="304" y1="380" x2="284" y2="400" stroke="#0000ff" class="a"/><line x1="284" y1="400" x2="304" y2="420" stroke="#0000ff" class="a"/><line x1="623" y1="401" x2="284" y2="401" stroke="#0000ff" class="a"/><line x1="304" y1="381" x2="284" y2="401" stroke="#0000ff" class="a"/><line x1="284" y1="401" x2="304" y2="421" stroke="#0000ff" class="a"/><line x1="624" y1="399" x2="285" y2="399" stroke="#0000ff" class="a"/><line x1="305" y1="379" x2="285" y2="399" stroke="#0000ff" class="a"/><line x1="285" y1="399" x2="305" y2="419" stroke="#0000ff" class="a"/><line x1="624" y1="400" x2="285" y2="400" stroke="#0000ff" class="a"/><line x1="305" y1="380" x2="285" y2="400" stroke="#0000ff" class="a"/><line x1="285" y1="400" x2="305" y2="420" stroke="#0000ff" class="a"/><line x1="624" y1="401" x2="285" y2="401" stroke="#0000ff" class="a"/><line x1="305" y1="381" x2="285" y2="401" stroke="#0000ff" class="a"/><line x1="285" y1="401" x2="305" y2="421" stroke="#0000ff" class="a"/><line x1="283" y1="399" x2="397" y2="409" stroke="#7f7fff" class="a"/><line x1="397" y1="409" x2="624" y2="409" stroke="#7f7fff" class="a"/><line x1="624" y1="409" x2="738" y2="399" stroke="#7f7fff" class="a"/><line x1="718" y1="419" x2="738" y2="399" stroke="#7f7fff" class="a"/><line x1="738" y1="399" x2="718" y2="379" stroke="#7f7fff" class="a"/><line x1="283" y1="400" x2="397" y2="410" stroke="#7f7fff" class="a"/><line x1="397" y1="410" x2="624" y2="410" stroke="#7f7fff" class="a"/><line x1="624" y1="410" x2="738" y2="400" stroke="#7f7fff" class="a"/><line x1="718" y1="420" x2="738" y2="400" stroke="#7f7fff" class="a"/><line x1="738" y1="400" x2="718" y2="380" stroke="#7f7fff" class="a"/><line x1="283" y1="401" x2="397" y2="411" stroke="#7f7fff" class="a"/><line x1="397" y1="411" x2="624" y2="411" stroke="#7f7fff" class="a"/><line x1="624" y1="411" x2="738" y2="401" stroke="#7f7fff" class="a"/><line x1="718" y1="421" x2="738" y2="401" stroke="#7f7fff" class="a"/><line x1="738" y1="401" x2="718" y2="381" stroke="#7f7fff" class="a"/><line x1="284" y1="399" x2="398" y2="409" stroke="#7f7fff" class="a"/><line x1="398" y1="409" x2="625" y2="409" stroke="#7f7fff" class="a"/><line x1="625" y1="409" x2="739" y2="399" stroke="#7f7fff" class="a"/><line x1="719" y1="419" x2="739" y2="399" stroke="#7f7fff" class="a"/><line x1="739" y1="399" x2="719" y2="379" stroke="#7f7fff" class="a"/><line x1="284" y1="400" x2="398" y2="410" stroke="#7f7fff" class="a"/><line x1="398" y1="410" x2="625" y2="410" stroke="#7f7fff" class="a"/><line x1="625" y1="410" x2="739" y2="400" stroke="#7f7fff" class="a"/><line x1="719" y1="420" x2="739" y2="400" stroke="#7f7fff" class="a"/><line x1="739" y1="400" x2="719" y2="380" stroke="#7f7fff" class="a"/><line x1="284" y1="401" x2="398" y2="411" stroke="#7f7fff" class="a"/><line x1="398" y1="411" x2="625" y2="411" stroke="#7f7fff" class="a"/><line x1="625" y1="411" x2="739" y2="401" stroke="#7f7fff" class="a"/><line x1="719" y1="421" x2="739" y2="401" stroke="#7f7fff" class="a"/><line x1="739" y1="401" x2="719" y2="381" stroke="#7f7fff" class="a"/><line x1="285" y1="399" x2="399" y2="409" stroke="#7f7fff" class="a"/><line x1="399" y1="409" x2="626" y2="409" stroke="#7f7fff" class="a"/><line x1="626" y1="409" x2="740" y2="399" stroke="#7f7fff" class="a"/><line x1="720" y1="419" x2="740" y2="399" stroke="#7f7fff" class="a"/><line x1="740" y1="399" x2="720" y2="379" stroke="#7f7fff" class="a"/><line x1="285" y1="400" x2="399" y2="410" stroke="#7f7fff" class="a"/><line x1="399" y1="410" x2="626" y2="410" stroke="#7f7fff" class="a"/><line x1="626" y1="410" x2="740" y2="400" stroke="#7f7fff" class="a"/><line x1="720" y1="420" x2="740" y2="400" stroke="#7f7fff" class="a"/><line x1="740" y1="400" x2="720" y2="380" stroke="#7f7fff" class="a"/><line x1="285" y1="401" x2="399" y2="411" stroke="#7f7fff" class="a"/><line x1="399" y1="411" x2="626" y2="411" stroke="#7f7fff" class="a"/><line x1="626" y1="411" x2="740" y2="401" stroke="#7f7fff" class="a"/><line x1="720" y1="421" x2="740" y2="401" stroke="#7f7fff" class="a"/><line x1="740" y1="401" x2="720" y2="381" stroke="#7f7fff" class="a"/><line x1="738" y1="399" x2="738" y2="961" stroke="#0000ff" class="a"/><line x1="718" y1="941" x2="738" y2="961" stroke="#0000ff" class="a"/><line x1="738" y1="961" x2="758" y2="941" stroke="#0000ff" class="a"/><line x1="738" y1="400" x2="738" y2="962" stroke="#0000ff" class="a"/><line x1="718" y1="942" x2="738" y2="962" stroke="#0000ff" class="a"/><line x1="738" y1="962" x2="758" y2="942" stroke="#0000ff" class="a"/><line x1="738" y1="401" x2="738" y2="963" stroke="#0000ff" class="a"/><line x1="718" y1="943" x2="738" y2="963" stroke="#0000ff" class="a"/><line x1="738" y1="963" x2="758" y2="943" stroke="#0000ff" class="a"/><line x1="739" y1="399" x2="739" y2="961" stroke="#0000ff" class="a"/><line x1="719" y1="941" x2="739" y2="961" stroke="#0000ff" class="a"/><line x1="739" y1="961" x2="759" y2="941" stroke="#0000ff" class="a"/><line x1="739" y1="400" x2="739" y2="962" stroke="#0000ff" class="a"/><line x1="719" y1="942" x2="739" y2="962" stroke="#0000ff" class="a"/><line x1="739" y1="962" x2="759" y2="942" stroke="#0000ff" class="a"/><line x1="739" y1="401" x2="739" y2="963" stroke="#0000ff" class="a"/><line x1="719" y1="943" x2="739" y2="963" stroke="#0000ff" class="a"/><line x1="739" y1="963" x2="759" y2="943" stroke="#0000ff" class="a"/><line x1="740" y1="399" x2="740" y2="961" stroke="#0000ff" class="a"/><line x1="720" y1="941" x2="740" y2="961" stroke="#0000ff" class="a"/><line x1="740" y1="961" x2="760" y2="941" stroke="#0000ff" class="a"/><line x1="740" y1="400" x2="740" y2="962" stroke="#0000ff" class="a"/><line x1="720" y1="942" x2="740" y2="962" stroke="#0000ff" class="a"/><line x1="740" y1="962" x2="760" y2="942" stroke="#0000ff" class="a"/><line x1="740" y1="401" x2="740" y2="963" stroke="#0000ff" class="a"/><line x1="720" y1="943" x2="740" y2="963" stroke="#0000ff" class="a"/><line x1="740" y1="963" x2="760" y2="943" stroke="#0000ff" class="a"/><line x1="738" y1="961" x2="748" y2="736" stroke="#7f7fff" class="a"/><line x1="748" y1="736" x2="748" y2="285" stroke="#7f7fff" class="a"/><line x1="748" y1="285" x2="738" y2="60" stroke="#7f7fff" class="a"/><line x1="758" y1="80" x2="738" y2="60" stroke="#7f7fff" class="a"/><line x1="738" y1="60" x2="718" y2="80" stroke="#7f7fff" class="a"/><line x1="738" y1="962" x2="748" y2="737" stroke="#7f7fff" class="a"/><line x1="748" y1="737" x2="748" y2="286" stroke="#7f7fff" class="a"/><line x1="748" y1="286" x2="738" y2="61" stroke="#7f7fff" class="a"/><line x1="758" y1="81" x2="738" y2="61" stroke="#7f7fff" class="a"/><line x1="738" y1="61" x2="718" y2="81" stroke="#7f7fff" class="a"/><line x1="738" y1="963" x2="748" y2="738" stroke="#7f7fff" class="a"/><line x1="748" y1="738" x2="748" y2="287" stroke="#7f7fff" class="a"/><line x1="748" y1="287" x2="738" y2="62" stroke="#7f7fff" class="a"/><line x1="758" y1="82" x2="738" y2="62" stroke="#7f7fff" class="a"/><line x1="738" y1="62" x2="718" y2="82" stroke="#7f7fff" class="a"/><line x1="739" y1="961" x2="749" y2="736" stroke="#7f7fff" class="a"/><line x1="749" y1="736" x2="749" y2="285" stroke="#7f7fff" class="a"/><line x1="749" y1="285" x2="739" y2="60" stroke="#7f7fff" class="a"/><line x1="759" y1="80" x2="739" y2="60" stroke="#7f7fff" class="a"/><line x1="739" y1="60" x2="719" y2="80" stroke="#7f7fff" class="a"/><line x1="739" y1="962" x2="749" y2="737" stroke="#7f7fff" class="a"/><line x1="749" y1="737" x2="749" y2="286" stroke="#7f7fff" class="a"/><line x1="749" y1="286" x2="739" y2="61" stroke="#7f7fff" class="a"/><line x1="759" y1="81" x2="739" y2="61" stroke="#7f7fff" class="a"/><line x1="739" y1="61" x2="719" y2="81" stroke="#7f7fff" class="a"/><line x1="739" y1="963" x2="749" y2="738" stroke="#7f7fff" class="a"/><line x1="749" y1="738" x2="749" y2="287" stroke="#7f7fff" class="a"/><line x1="749" y1="287" x2="739" y2="62" stroke="#7f7fff" class="a"/><line x1="759" y1="82" x2="739" y2="62" stroke="#7f7fff" class="a"/><line x1="739" y1="62" x2="719" y2="82" stroke="#7f7fff" class="a"/><line x1="740" y1="961" x2="750" y2="736" stroke="#7f7fff" class="a"/><line x1="750" y1="736" x2="750" y2="285" stroke="#7f7fff" class="a"/><line x1="750" y1="285" x2="740" y2="60" stroke="#7f7fff" class="a"/><line x1="760" y1="80" x2="740" y2="60" stroke="#7f7fff" class="a"/><line x1="740" y1="60" x2="720" y2="80" stroke="#7f7fff" class="a"/><line x1="740" y1="962" x2="750" y2="737" stroke="#7f7fff" class="a"/><line x1="750" y1="737" x2="750" y2="286" stroke="#7f7fff" class="a"/><line x1="750" y1="286" x2="740" y2="61" stroke="#7f7fff" class="a"/><line x1="760" y1="81" x2="740" y2="61" stroke="#7f7fff" class="a"/><line x1="740" y1="61" x2="720" y2="81" stroke="#7f7fff" class="a"/><line x1="740" y1="963" x2="750" y2="738" stroke="#7f7fff" class="a"/><line x1="750" y1="738" x2="750" y2="287" stroke="#7f7fff" class="a"/><line x1="750" y1="287" x2="740" y2="62" stroke="#7f7fff" class="a"/><line x1="760" y1="82" x2="740" y2="62" stroke="#7f7fff" class="a"/><line x1="740" y1="62" x2="720" y2="82" stroke="#7f7fff" class="a"/><line x1="738" y1="60" x2="961" y2="283" stroke="#0000ff" class="a"/><line x1="932" y1="283" x2="961" y2="283" stroke="#0000ff" class="a"/><line x1="961" y1="283" x2="961" y2="255" stroke="#0000ff" class="a"/><line x1="738" y1="61" x2="961" y2="284" stroke="#0000ff" class="a"/><line x1="932" y1="284" x2="961" y2="284" stroke="#0000ff" class="a"/><line x1="961" y1="284" x2="961" y2="256" stroke="#0000ff" class="a"/><line x1="738" y1="62" x2="961" y2="285" stroke="#0000ff" class="a"/><line x1="932" y1="285" x2="961" y2="285" stroke="#0000ff" class="a"/><line x1="961" y1="285" x2="961" y2="257" stroke="#0000ff" class="a"/><line x1="739" y1="60" x2="962" y2="283" stroke="#0000ff" class="a"/><line x1="933" y1="283" x2="962" y2="283" stroke="#0000ff" class="a"/><line x1="962" y1="283" x2="962" y2="255" stroke="#0000ff" class="a"/><line x1="739" y1="61" x2="962" y2="284" stroke="#0000ff" class="a"/><line x1="933" y1="284" x2="962" y2="284" stroke="#0000ff" class="a"/><line x1="962" y1="284" x2="962" y2="256" stroke="#0000ff" class="a"/><line x1="739" y1="62" x2="962" y2="285" stroke="#0000ff" class="a"/><line x1="933" y1="285" x2="962" y2="285" stroke="#0000ff" class="a"/><line x1="962" y1="285" x2="962" y2="257" stroke="#0000ff" class="a"/><line x1="740" y1="60" x2="963" y2="283" stroke="#0000ff" class="a"/><line x1="934" y1="283" x2="963" y2="283" stroke="#0000ff" class="a"/><line x1="963" y1="283" x2="963" y2="255" stroke="#0000ff" class="a"/><line x1="740" y1="61" x2="963" y2="284" stroke="#0000ff" class="a"/><line x1="934" y1="284" x2="963" y2="284" stroke="#0000ff" class="a"/><line x1="963" y1="284" x2="963" y2="256" stroke="#0000ff" class="a"/><line x1="740" y1="62" x2="963" y2="285" stroke="#0000ff" class="a"/><line x1="934" y1="285" x2="963" y2="285" stroke="#0000ff" class="a"/><line x1="963" y1="285" x2="963" y2="257" stroke="#0000ff" class="a"/><line x1="961" y1="283" x2="60" y2="283" stroke="#0000ff" class="a"/><line x1="80" y1="263" x2="60" y2="283" stroke="#0000ff" class="a"/><line x1="60" y1="283" x2="80" y2="303" stroke="#0000ff" class="a"/><line x1="961" y1="284" x2="60" y2="284" stroke="#0000ff" class="a"/><line x1="80" y1="264" x2="60" y2="284" stroke="#0000ff" class="a"/><line x1="60" y1="284" x2="80" y2="304" stroke="#0000ff" class="a"/><line x1="961" y1="285" x2="60" y2="285" stroke="#0000ff" class="a"/><line x1="80" y1="265" x2="60" y2="285" stroke="#0000ff" class="a"/><line x1="60" y1="285" x2="80" y2="305" stroke="#0000ff" class="a"/><line x1="962" y1="283" x2="61" y2="283" stroke="#0000ff" class="a"/><line x1="81" y1="263" x2="61" y2="283" stroke="#0000ff" class="a"/><line x1="61" y1="283" x2="81" y2="303" stroke="#0000ff" class="a"/><line x1="962" y1="284" x2="61" y2="284" stroke="#0000ff" class="a"/><line x1="81" y1="264" x2="61" y2="284" stroke="#0000ff" class="a"/><line x1="61" y1="284" x2="81" y2="304" stroke="#0000ff" class="a"/><line x1="962" y1="285" x2="61" y2="285" stroke="#0000ff" class="a"/><line x1="81" y1="265" x2="61" y2="285" stroke="#0000ff" class="a"/><line x1="61" y1="285" x2="81" y2="305" stroke="#0000ff" class="a"/><line x1="963" y1="283" x2="62" y2="283" stroke="#0000ff" class="a"/><line x1="82" y1="263" x2="62" y2="283" stroke="#0000ff" class="a"/><line x1="62" y1="283" x2="82" y2="303" stroke="#0000ff" class="a"/><line x1="963" y1="284" x2="62" y2="284" stroke="#0000ff" class="a"/><line x1="82" y1="264" x2="62" y2="284" stroke="#0000ff" class="a"/><line x1="62" y1="284" x2="82" y2="304" stroke="#0000ff" class="a"/><line x1="963" y1="285" x2="62" y2="285" stroke="#0000ff" class="a"/><line x1="82" y1="265" x2="62" y2="285" stroke="#0000ff" class="a"/><line x1="62" y1="285" x2="82" y2="305" stroke="#0000ff" class="a"/><line x1="60" y1="283" x2="60" y2="399" stroke="#0000ff" class="a"/><line x1="40" y1="379" x2="60" y2="399" stroke="#0000ff" class="a"/><line x1="60" y1="399" x2="80" y2="379" stroke="#0000ff" class="a"/><line x1="60" y1="284" x2="60" y2="400" stroke="#0000ff" class="a"/><line x1="40" y1="380" x2="60" y2="400" stroke="#0000ff" class="a"/><line x1="60" y1="400" x2="80" y2="380" stroke="#0000ff" class="a"/><line x1="60" y1="285" x2="60" y2="401" stroke="#0000ff" class="a"/><line x1="40" y1="381" x2="60" y2="401" stroke="#0000ff" class="a"/><line x1="60" y1="401" x2="80" y2="381" stroke="#0000ff" class="a"/><line x1="61" y1="283" x2="61" y2="399" stroke="#0000ff" class="a"/><line x1="41" y1="379" x2="61" y2="399" stroke="#0000ff" class="a"/><line x1="61" y1="399" x2="81" y2="379" stroke="#0000ff" class="a"/><line x1="61" y1="284" x2="61" y2="400" stroke="#0000ff" class="a"/><line x1="41" y1="380" x2="61" y2="400" stroke="#0000ff" class="a"/><line x1="61" y1="400" x2="81" y2="380" stroke="#0000ff" class="a"/><line x1="61" y1="285" x2="61" y2="401" stroke="#0000ff" class="a"/><line x1="41" y1="381" x2="61" y2="401" stroke="#0000ff" class="a"/><line x1="61" y1="401" x2="81" y2="381" stroke="#0000ff" class="a"/><line x1="62" y1="283" x2="62" y2="399" stroke="#0000ff" class="a"/><line x1="42" y1="379" x2="62" y2="399" stroke="#0000ff" class="a"/><line x1="62" y1="399" x2="82" y2="379" stroke="#0000ff" class="a"/><line x1="62" y1="284" x2="62" y2="400" stroke="#0000ff" class="a"/><line x1="42" y1="380" x2="62" y2="400" stroke="#0000ff" class="a"/><line x1="62" y1="400" x2="82" y2="380" stroke="#0000ff" class="a"/><line x1="62" y1="285" x2="62" y2="401" stroke="#0000ff" class="a"/><line x1="42" y1="381" x2="62" y2="401" stroke="#0000ff" class="a"/><line x1="62" y1="401" x2="82" y2="381" stroke="#0000ff" class="a"/></svg>