<?xml version="1.0" standalone="no"?>
<!DOCTYPE svg PUBLIC "-//W3C//DTD SVG 20010904//EN"
 "http://www.w3.org/TR/2001/REC-SVG-20010904/DTD/svg10.dtd">
<svg version="1.0" xmlns="http://www.w3.org/2000/svg"
 width="260.000000pt" height="260.000000pt" viewBox="0 0 260.000000 260.000000"
 preserveAspectRatio="xMidYMid meet">
<metadata>
Created by potrace 1.11, written by Peter Selinger 2001-2013
</metadata>
<g transform="translate(0.000000,260.000000) scale(0.100000,-0.100000)"
fill="#000000" stroke="none">
<path d="M639 2525 c-96 -18 -174 -47 -231 -85 -39 -27 -51 -30 -126 -30 -113
0 -122 -9 -122 -129 0 -73 -4 -99 -25 -145 -82 -184 -79 -429 7 -604 l31 -62
-5 -678 c-4 -524 -2 -682 7 -695 11 -16 100 -17 1147 -17 869 0 1137 3 1146
12 9 9 12 278 12 1149 0 1045 -1 1138 -17 1150 -13 12 -125 13 -658 10 l-641
-3 -80 45 c-133 77 -303 108 -445 82z m276 -132 c122 -7 146 -17 231 -95 l44
-41 0 -403 0 -404 -435 0 -435 0 -2 288 -3 287 -21 -40 c-34 -64 -47 -141 -42
-256 3 -57 7 -111 10 -119 3 -8 3 -12 1 -7 -12 20 -23 3 -23 -35 -1 -40 -2
-42 -16 -23 -8 11 -26 56 -41 100 -22 67 -26 98 -26 195 0 98 4 127 27 195 14
44 33 89 41 99 14 19 15 18 15 -12 0 -18 3 -32 8 -32 15 1 72 114 72 144 0 35
29 68 109 125 40 28 51 31 125 32 45 0 104 4 131 9 28 4 66 6 85 4 19 -3 85
-7 145 -11z m515 -169 l0 -95 -32 3 c-26 2 -36 11 -55 47 -13 24 -23 45 -23
47 0 1 10 4 23 6 25 3 35 41 17 64 -17 19 -67 18 -78 -3 -9 -14 -11 -14 -21 5
-12 22 -11 22 79 22 l90 0 0 -96z m220 1 l0 -95 -90 0 -90 0 0 95 0 95 90 0
90 0 0 -95z m153 85 c-13 -5 -23 -13 -23 -18 0 -17 13 -22 27 -10 10 8 17 8
25 0 13 -13 2 -32 -18 -32 -10 0 -15 -8 -13 -22 1 -13 -2 -31 -6 -42 -11 -25
15 -40 35 -21 11 12 12 17 2 27 -17 17 -15 26 8 33 44 14 47 68 6 86 -15 6 -8
8 29 6 l50 -2 0 -90 0 -90 -95 0 -95 0 -3 93 -3 92 48 -1 c39 0 44 -2 26 -9z
m367 -85 l0 -95 -105 0 -105 0 0 95 0 95 105 0 105 0 0 -95z m142 86 c13 -5
36 -20 52 -34 25 -22 30 -35 34 -86 l4 -61 -96 0 -96 0 0 95 0 95 39 0 c22 0
50 -4 63 -9z m-982 -41 c0 -19 -20 -27 -33 -13 -8 7 11 33 24 33 5 0 9 -9 9
-20z m-8 -256 c30 -108 30 -240 -1 -351 -13 -45 -29 -90 -37 -100 -11 -15 -13
24 -14 277 0 262 2 292 15 273 8 -11 24 -56 37 -99z m107 -16 l-1 -93 -13 70
c-8 39 -17 80 -21 93 -5 18 -2 22 15 22 20 0 21 -5 20 -92z m221 85 c1 -5 3
-50 7 -100 l5 -93 -28 -1 c-16 0 -59 -2 -96 -4 l-68 -4 0 105 0 104 90 0 c50
0 90 -3 90 -7z m280 -93 l0 -100 -100 0 -101 0 2 100 1 100 99 0 99 0 0 -100z
m240 0 l0 -100 -105 0 -105 0 0 100 0 100 105 0 105 0 0 -100z m230 0 l0 -100
-95 0 -95 0 0 100 0 100 95 0 95 0 0 -100z m-742 -237 l-3 -98 -92 -3 -93 -3
0 101 0 100 95 0 96 0 -3 -97z m272 3 l0 -93 -91 -6 c-50 -4 -95 -4 -100 -1
-5 3 -9 48 -9 100 l0 94 100 0 100 0 0 -94z m240 -1 l0 -95 -105 0 -105 0 0
95 0 95 105 0 105 0 0 -95z m230 0 l0 -95 -95 0 -95 0 0 95 0 95 95 0 95 0 0
-95z m-974 -103 c-13 -13 -16 9 -9 64 l8 59 3 -59 c2 -32 1 -61 -2 -64z m4
-172 l0 -100 -26 0 c-16 0 -24 5 -21 13 2 6 -9 27 -26 44 l-30 33 27 55 c23
43 33 55 52 55 24 0 24 -1 24 -100z m225 0 l0 -95 -92 -3 -93 -3 0 101 0 101
93 -3 92 -3 0 -95z m270 0 l0 -95 -95 0 -95 0 -3 84 c-2 46 0 90 2 98 4 11 27
13 98 11 l93 -3 0 -95z m95 75 c-13 -16 0 -28 16 -14 7 6 18 8 24 4 17 -11 11
-37 -10 -42 -21 -6 -27 -28 -10 -38 6 -3 10 -2 10 2 0 5 10 13 23 18 25 11 34
49 17 71 -11 12 -5 14 34 14 l46 0 0 -89 0 -90 -97 -3 c-54 -2 -101 -2 -105 0
-5 2 -8 43 -8 92 0 93 4 100 47 92 17 -3 21 -8 13 -17z m380 -75 l0 -90 -95 0
-95 0 0 90 0 90 95 0 95 0 0 -90z m-1295 -135 c-113 -95 -313 -143 -462 -112
-79 17 -202 72 -248 111 l-30 26 385 0 385 0 -30 -25z m-814 -21 c13 -14 50
-44 82 -65 55 -39 57 -41 57 -85 l0 -46 -92 5 c-51 3 -94 6 -95 6 -2 1 -3 48
-3 106 0 116 7 126 51 79z m1139 1 c0 -14 -1 -25 -3 -25 -2 0 -14 11 -27 25
l-23 25 26 0 c22 0 27 -5 27 -25z m230 -85 l0 -110 -32 0 c-26 0 -44 12 -95
62 -60 59 -63 65 -63 110 l0 48 95 0 95 0 0 -110z m268 3 l-3 -108 -92 -3 -91
-3 -7 95 c-4 53 -5 102 -1 111 4 12 25 15 101 15 l96 0 -3 -107z m242 -3 l0
-111 -102 3 -103 3 -3 108 -3 107 106 0 105 0 0 -110z m230 6 c0 -119 9 -110
-112 -115 l-78 -3 0 111 0 111 95 0 95 0 0 -104z m-1231 -62 c7 5 11 -4 11
-23 l0 -31 -95 0 -95 0 0 28 c0 24 8 32 53 54 l52 26 32 -30 c17 -17 36 -27
42 -24z m-656 -5 c15 -11 32 -19 39 -18 23 4 118 -13 124 -22 3 -5 -42 -9
-100 -9 l-106 0 0 35 c0 40 7 43 43 14z m729 -16 c24 -22 23 -35 -4 -31 -15 2
-24 11 -26 26 -4 26 5 28 30 5z m-332 -18 c0 -12 -17 -15 -97 -14 l-98 2 75 8
c41 5 79 11 85 13 21 9 35 5 35 -9z m-480 -140 l0 -95 -95 0 -95 0 0 95 0 95
95 0 95 0 0 -95z m250 0 l0 -95 -105 0 -105 0 0 95 0 95 105 0 105 0 0 -95z
m230 0 l0 -95 -95 0 -95 0 0 95 0 95 95 0 95 0 0 -95z m270 0 l0 -95 -95 0
-95 0 0 95 0 95 95 0 95 0 0 -95z m187 33 c52 -51 63 -68 63 -95 l0 -33 -110
0 -110 0 0 95 0 95 47 0 c45 0 51 -4 110 -62z m293 46 c0 -14 -3 -14 -15 -4
-8 7 -15 14 -15 16 0 2 7 4 15 4 8 0 15 -7 15 -16z m270 -79 l0 -95 -57 0
c-52 0 -60 3 -95 37 -35 34 -38 41 -38 95 l0 58 95 0 95 0 0 -95z m240 0 l0
-95 -105 0 -105 0 0 95 0 95 105 0 105 0 0 -95z m230 0 l0 -95 -95 0 -95 0 0
95 0 95 95 0 95 0 0 -95z m-2107 -182 c-18 -7 -16 -33 2 -33 8 0 15 5 15 11 0
5 5 7 10 4 16 -10 12 -45 -5 -45 -8 0 -15 -9 -15 -20 0 -23 3 -24 33 -7 41 22
49 54 21 81 -14 15 -11 16 30 16 l46 0 0 -95 0 -95 -95 0 -95 0 0 95 0 95 33
-1 c17 0 26 -3 20 -6z m387 -88 l0 -95 -105 0 -105 0 0 95 0 95 105 0 105 0 0
-95z m230 0 l0 -95 -95 0 -95 0 0 95 0 95 95 0 95 0 0 -95z m270 0 l0 -95 -95
0 -95 0 0 95 0 95 95 0 95 0 0 -95z m250 0 l0 -95 -110 0 -110 0 0 95 0 95
110 0 110 0 0 -95z m145 86 c3 -5 -7 -11 -22 -13 -28 -3 -45 -28 -19 -28 9 0
16 5 16 10 0 6 5 10 10 10 17 0 11 -42 -7 -56 -15 -10 -16 -15 -5 -25 7 -8 12
-9 12 -2 0 6 11 14 25 17 19 5 25 13 25 32 l0 26 25 -30 c19 -22 25 -41 25
-76 l0 -46 -95 0 -95 0 0 95 0 95 49 0 c28 0 52 -4 56 -9z m355 -7 c0 -14 -3
-14 -15 -4 -8 7 -15 14 -15 16 0 2 7 4 15 4 8 0 15 -7 15 -16z m240 -80 l0
-95 -47 3 c-41 3 -48 6 -51 26 -2 12 -10 22 -20 22 -9 0 -33 17 -54 37 -29 28
-38 45 -38 70 l0 33 105 0 105 0 0 -96z m230 1 l0 -95 -95 0 -95 0 0 95 0 95
95 0 95 0 0 -95z m-1970 -240 l0 -105 -95 0 -95 0 0 105 0 105 95 0 95 0 0
-105z m250 0 l0 -105 -105 0 -105 0 0 105 0 105 105 0 105 0 0 -105z m230 0
l0 -105 -95 0 -95 0 0 105 0 105 95 0 95 0 0 -105z m270 0 l0 -105 -95 0 -95
0 0 105 0 105 95 0 95 0 0 -105z m250 0 l0 -105 -109 0 -109 0 -1 105 -2 105
111 0 110 0 0 -105z m230 0 l0 -105 -95 0 -95 0 0 105 0 105 95 0 95 0 0 -105z
m145 94 c4 -6 -1 -16 -11 -24 -11 -7 -16 -17 -12 -21 4 -4 14 -2 21 4 16 14
27 6 27 -20 0 -10 -7 -18 -15 -18 -8 0 -15 -9 -15 -20 0 -11 5 -20 10 -20 6 0
10 5 10 10 0 6 6 10 14 10 7 0 19 7 26 15 12 14 16 13 42 -11 21 -21 28 -37
28 -66 l0 -38 -95 0 -95 0 0 105 0 105 29 0 c17 0 33 -5 36 -11z m365 -9 c0
-11 -2 -20 -3 -20 -2 0 -12 9 -22 20 -18 19 -17 20 3 20 15 0 22 -6 22 -20z
m230 -85 l0 -105 -59 0 c-57 0 -59 1 -64 29 -4 16 -20 45 -37 64 -23 27 -30
44 -30 76 l0 41 95 0 95 0 0 -105z m-410 -90 c10 -13 9 -15 -9 -15 -12 0 -21
6 -21 15 0 8 4 15 9 15 5 0 14 -7 21 -15z m-1560 -150 l0 -95 -72 0 c-43 1
-80 6 -90 13 -12 9 -18 36 -23 95 l-8 82 97 0 96 0 0 -95z m250 0 l0 -95 -105
0 -105 0 0 95 0 95 105 0 105 0 0 -95z m108 84 c-10 -5 -18 -17 -18 -26 0 -14
2 -14 19 1 17 15 19 15 25 1 9 -25 7 -35 -8 -35 -14 0 -31 -29 -22 -38 11 -10
67 25 72 45 7 27 -1 42 -30 53 -16 7 -8 9 32 9 l52 1 0 -95 0 -95 -95 0 -95 0
0 95 0 95 43 0 c33 -1 38 -3 25 -11z m392 -84 l0 -95 -95 0 -95 0 0 95 0 95
95 0 95 0 0 -95z m250 0 l0 -95 -105 0 -105 0 0 95 0 95 105 0 105 0 0 -95z
m230 0 l0 -95 -95 0 -95 0 0 95 0 95 95 0 95 0 0 -95z m270 0 l0 -95 -95 0
-95 0 0 95 0 95 95 0 95 0 0 -95z m103 83 c-13 -6 -23 -17 -23 -25 0 -17 27
-17 33 0 4 9 8 8 16 -3 13 -19 9 -35 -10 -35 -8 0 -15 -10 -17 -22 -2 -13 -2
-23 1 -23 13 0 66 33 70 44 3 8 16 11 36 8 31 -4 31 -5 31 -63 l0 -59 -105 0
-105 0 0 95 0 95 48 -1 c41 0 44 -2 25 -11z m367 -61 c0 -102 -14 -117 -115
-117 l-75 0 0 59 c0 53 3 63 33 94 29 32 37 35 95 36 l62 1 0 -73z"/>
<path d="M683 2320 c-55 -11 -118 -44 -137 -72 -35 -49 -11 -108 44 -108 30 0
49 19 82 80 16 28 22 31 55 28 51 -4 73 -44 79 -140 4 -58 2 -80 -13 -108 -19
-36 -56 -51 -76 -31 -6 6 -24 11 -39 11 l-28 0 0 -95 0 -95 35 0 35 0 0 50 0
50 43 -6 c134 -19 252 99 233 233 -7 51 -35 110 -68 140 -54 50 -165 79 -245
63z"/>
<path d="M644 1710 c-66 -26 -84 -116 -35 -169 56 -59 157 -34 177 44 10 41
-8 87 -45 112 -35 24 -62 28 -97 13z"/>
<path d="M2260 2065 c-17 -21 -4 -32 20 -17 18 11 20 9 20 -13 0 -16 -6 -25
-16 -25 -12 0 -15 -6 -11 -22 4 -12 1 -28 -5 -35 -14 -18 4 -38 26 -30 17 7
22 37 6 37 -5 0 -7 7 -4 15 4 8 13 15 20 15 8 0 20 11 26 25 9 21 8 28 -7 45
-21 24 -58 26 -75 5z"/>
<path d="M2035 1827 c-13 -10 -15 -16 -6 -21 6 -4 18 -3 25 3 10 9 15 7 20 -6
4 -11 1 -22 -8 -29 -9 -6 -16 -18 -16 -27 0 -14 3 -14 29 -1 37 18 45 50 20
75 -22 22 -38 24 -64 6z"/>
<path d="M2035 1710 c-4 -7 -3 -16 3 -22 14 -14 45 -2 40 15 -6 16 -34 21 -43
7z"/>
<path d="M2025 1440 c-8 -13 3 -30 20 -30 14 0 27 24 18 34 -10 9 -31 7 -38
-4z"/>
<path d="M1797 1309 c-9 -6 -15 -15 -11 -20 4 -6 11 -6 19 1 16 13 35 5 35
-13 0 -7 -9 -20 -20 -30 -12 -10 -18 -22 -14 -28 3 -6 9 -7 13 -3 3 5 15 14
26 20 27 15 32 54 9 71 -21 15 -33 16 -57 2z"/>
<path d="M1795 1190 c-8 -13 3 -30 20 -30 14 0 27 24 18 34 -10 9 -31 7 -38
-4z"/>
<path d="M295 1077 c-13 -10 -15 -16 -6 -21 6 -4 18 -2 26 4 13 10 15 8 15
-14 0 -14 -4 -26 -10 -26 -5 0 -10 -9 -10 -19 0 -18 2 -19 27 -6 46 24 53 45
23 75 -23 23 -39 25 -65 7z"/>
<path d="M295 960 c-4 -7 -3 -16 3 -22 14 -14 45 -2 40 15 -6 16 -34 21 -43 7z"/>
<path d="M775 1077 c-11 -9 -14 -16 -7 -21 6 -3 13 -2 17 4 11 18 25 10 25
-15 0 -16 -6 -25 -15 -25 -17 0 -20 -25 -5 -35 6 -3 10 -2 10 2 0 5 10 13 23
18 23 10 33 41 20 61 -13 19 -48 25 -68 11z"/>
<path d="M774 959 c-3 -6 -2 -15 4 -21 13 -13 32 -2 32 18 0 16 -26 19 -36 3z"/>
<path d="M2261 1067 c-14 -18 -2 -30 15 -16 7 6 18 8 24 4 15 -9 12 -35 -5
-35 -9 0 -15 -9 -15 -24 0 -14 -4 -28 -10 -31 -16 -10 -12 -32 7 -39 24 -9 40
10 27 32 -9 13 -5 22 18 43 28 27 30 54 4 71 -18 12 -53 9 -65 -5z"/>
<path d="M293 694 c-8 -21 13 -42 28 -27 13 13 5 43 -11 43 -6 0 -13 -7 -17
-16z"/>
<path d="M1535 691 c-8 -15 3 -31 21 -31 9 0 14 7 12 17 -4 20 -24 28 -33 14z"/>
<path d="M2023 795 c-7 -21 4 -32 19 -17 19 19 28 14 28 -13 0 -16 -6 -25 -15
-25 -8 0 -15 -9 -15 -20 0 -11 5 -20 10 -20 6 0 10 4 10 9 0 5 9 11 20 14 49
13 32 87 -20 87 -18 0 -33 -6 -37 -15z"/>
<path d="M2264 806 c-24 -18 -10 -35 16 -19 15 10 19 9 25 -5 3 -10 0 -21 -9
-28 -18 -12 -22 -44 -6 -44 6 0 10 5 10 10 0 6 7 10 15 10 22 0 38 36 26 59
-17 32 -47 38 -77 17z"/>
<path d="M2264 689 c-3 -6 0 -17 7 -25 18 -17 44 -2 36 20 -7 18 -33 21 -43 5z"/>
<path d="M533 565 c-7 -21 4 -32 19 -17 18 18 28 15 28 -8 0 -11 -7 -23 -15
-26 -17 -7 -21 -44 -5 -44 6 0 10 3 10 8 0 4 10 12 23 17 25 11 34 49 17 71
-17 19 -69 18 -77 -1z"/>
<path d="M542 443 c5 -26 38 -29 38 -4 0 15 -6 21 -21 21 -14 0 -19 -5 -17
-17z"/>
<path d="M781 566 c-8 -9 -8 -16 -2 -20 5 -4 12 -2 16 4 11 18 25 10 25 -15 0
-16 -6 -25 -15 -25 -8 0 -15 -9 -15 -20 0 -11 5 -20 10 -20 6 0 10 3 10 8 0 4
10 12 23 17 25 11 34 49 17 71 -16 18 -54 18 -69 0z"/>
<path d="M784 449 c-3 -6 -2 -15 4 -21 13 -13 32 -2 32 18 0 16 -26 19 -36 3z"/>
<path d="M1041 567 c-14 -18 -2 -30 15 -16 7 6 18 8 24 4 15 -9 12 -35 -5 -41
-8 -4 -15 -16 -15 -28 0 -11 4 -16 8 -11 4 6 16 15 27 21 24 13 31 49 15 70
-16 18 -54 18 -69 1z"/>
<path d="M1045 450 c-4 -7 -3 -16 3 -22 14 -14 45 -2 40 15 -6 16 -34 21 -43
7z"/>
<path d="M1793 444 c-8 -20 8 -36 26 -25 15 10 8 41 -9 41 -6 0 -13 -7 -17
-16z"/>
<path d="M520 325 c-17 -21 -4 -32 20 -17 18 11 20 9 20 -14 0 -14 -4 -23 -10
-19 -6 4 -10 -5 -10 -19 0 -14 5 -26 10 -26 6 0 10 5 10 10 0 6 7 10 15 10 9
0 21 11 27 25 9 21 8 28 -7 45 -21 24 -58 26 -75 5z"/>
<path d="M525 210 c-4 -7 -3 -16 3 -22 14 -14 45 -2 40 15 -6 16 -34 21 -43 7z"/>
<path d="M781 216 c-8 -10 -8 -16 2 -24 17 -14 42 2 34 22 -8 20 -21 20 -36 2z"/>
<path d="M1265 331 c-12 -21 6 -33 25 -16 16 15 18 14 23 -5 3 -13 0 -23 -9
-27 -8 -3 -14 -13 -14 -23 0 -17 2 -17 31 -3 25 13 30 20 27 47 -3 28 -7 31
-40 34 -20 2 -39 -2 -43 -7z"/>
<path d="M1283 223 c-17 -6 -16 -30 1 -36 13 -5 36 10 36 24 0 10 -23 17 -37
12z"/>
<path d="M2022 203 c4 -22 43 -25 43 -3 0 8 -11 16 -23 18 -19 3 -23 0 -20
-15z"/>
</g>
</svg>
