<svg xmlns="http://www.w3.org/2000/svg" viewBox="0 0 562.11 937.21"><defs><style>.cls-1{isolation:isolate;}.cls-2{fill:#a8a8a8;}.cls-3{mix-blend-mode:multiply;}.cls-4{fill:#dadcda;}.cls-5{mix-blend-mode:screen;opacity:0.3;}.cls-6{fill:#f1f0ef;}.cls-7{fill:#888888;}</style></defs><g class="cls-1"><g id="Layer_2" data-name="Layer 2"><g id="Trophies"><path class="cls-2" d="M341.18,746.17H220.94c2.74-13.72,19.44-47.06,52.15-65.95q2.43-1.4,5-2.69l2,3.73,1,2,.83-1.58,2.17-4.14a105.07,105.07,0,0,1,15.08,9.33C325.21,706.13,338.73,733.94,341.18,746.17Z"/><g class="cls-3"><path class="cls-4" d="M303.81,744.81c3.36-14.4-8.16-42.72-19.68-55.68l15-2.27c26.07,19.27,39.59,47.08,42,59.31H303.65A5.58,5.58,0,0,1,303.81,744.81Z"/></g><g class="cls-5"><path class="cls-6" d="M282.21,688.17c-20.78,8.13-52.61,43.46-60.28,58h-1c2.74-13.72,19.44-47.06,52.15-65.95,2.51.3,4.88.64,6.93,1,.66.13,1.28.27,1.87.41C287.82,683.1,289.87,685.17,282.21,688.17Z"/></g><path class="cls-7" d="M312.38,671.29c-6.24,16.8-8.64,21.12-8.64,21.12H258.38s-2.4-4.32-8.64-21.12c-5.46-14.69-7.24-24.61,15.82-41.63,3.31-2.45,7.14-5,11.54-7.81H285a153.45,153.45,0,0,1,17.4,12.43h0C319.25,648.59,317.32,658,312.38,671.29Z"/><g class="cls-3"><path class="cls-4" d="M312.38,671.29c-6.24,16.8-8.64,21.12-8.64,21.12H292.61c8.38-8.67,15-36.33.64-42.16-15.36-6.24-11.52-12.48,1-13l8.21-3h0C319.25,648.59,317.32,658,312.38,671.29Z"/></g><g class="cls-5"><path class="cls-6" d="M252.09,659.91s15.24,10.26,22.44,32.34l-13.93.16h-2.22s-2.4-4.32-8.64-21.12c-5.46-14.69-7.24-24.61,15.82-41.63,4.5.06,16.74-8.84,13-7.19C247.11,636.39,252.09,659.91,252.09,659.91Z"/></g><path class="cls-7" d="M560.52,30.77A41.43,41.43,0,0,0,559,26.21a39.19,39.19,0,0,0-5.45-9.45A41.83,41.83,0,0,0,542,6.62a47.14,47.14,0,0,0-13.75-5.45,43.84,43.84,0,0,0-14.88-.9,30.15,30.15,0,0,0-8.16,2.1,21,21,0,0,0-4.42,2.53,15.42,15.42,0,0,0-4.2,4.78,2,2,0,0,0-.1.21,14.41,14.41,0,0,0-.68,1.43,17.81,17.81,0,0,0-.56,1.75c-.13.58-.25,1.24-.32,1.76l-.09,1.2a28.37,28.37,0,0,0,.12,4.11,59.52,59.52,0,0,0,1.1,6.75c.88,4.15,1.91,8,2.7,11.66a51.55,51.55,0,0,1,1.41,10.33,15.05,15.05,0,0,1-.46,3.92,5.18,5.18,0,0,1-1.37,2.37,7.58,7.58,0,0,1-3.11,1.63,21.94,21.94,0,0,1-4.77.67,52.32,52.32,0,0,1-11-.92c-3.8-.6-7.62-1.5-11.46-2.44h-.05a3,3,0,0,0-2,5.57c7.43,3.46,15.07,6.59,24.06,7.74a29.88,29.88,0,0,0,7.2,0,18.7,18.7,0,0,0,7.92-2.86,16.85,16.85,0,0,0,5.92-7,25,25,0,0,0,2.1-7.75,60,60,0,0,0-.3-13.57c-.49-4.2-1.15-8.22-1.61-12a46.54,46.54,0,0,1-.42-5.15c0-.34,0-.66,0-1l.62-.22a14.46,14.46,0,0,1,3.51-.56,29.23,29.23,0,0,1,8.92,1.16,30.49,30.49,0,0,1,8.3,3.81,23.07,23.07,0,0,1,6.17,5.86,22.42,22.42,0,0,1,3.39,7.47,27.26,27.26,0,0,1,.7,7q0,.93-.09,1.89a45.09,45.09,0,0,1-1.79,9.68,75.41,75.41,0,0,1-3.69,9.89,100,100,0,0,1-5,9.72,143.8,143.8,0,0,1-12.8,18.33c-4.79,5.86-10,11.53-15.43,17C492.74,120.29,480.82,130.67,469,142c-5.86,5.73-11.79,11.6-17,19a40.77,40.77,0,0,0-6.46,13.2,23.55,23.55,0,0,0-.6,8.6,21.42,21.42,0,0,0,1,4.36c.46,1.13.86,2.22,1.38,3.33a36,36,0,0,0,1.74,3.29c.34.54.63,1.08,1,1.61l1.15,1.57a24.09,24.09,0,0,0,6.12,5.51,18.69,18.69,0,0,0,4.77,2.09,17.71,17.71,0,0,0,3.44.66,19.6,19.6,0,0,0,8.3-1.12,21.36,21.36,0,0,0,11.66-10.17,17.65,17.65,0,0,0,2-7.77,15.27,15.27,0,0,0-2-7.74,3.83,3.83,0,0,0-7,3.1l.06.18a8,8,0,0,1-1.29,7.49,11.49,11.49,0,0,1-6.73,4.42,8.2,8.2,0,0,1-3.56,0,7,7,0,0,1-2.92-1.43,11.79,11.79,0,0,1-2.44-2.82,17.07,17.07,0,0,1-1-1.91,21.29,21.29,0,0,1-.85-2.12c-.26-.74-.45-1.56-.68-2.31a7.91,7.91,0,0,1-.15-1.52,9.59,9.59,0,0,1,.61-3.27,28.78,28.78,0,0,1,4.85-7.83,89.59,89.59,0,0,1,7.55-7.92c2.74-2.61,5.64-5.17,8.61-7.71,5.93-5.1,12.12-10.17,18.27-15.4s12.32-10.6,18.26-16.32a221.53,221.53,0,0,0,17.18-18.19,148.6,148.6,0,0,0,14.84-20.88A103.91,103.91,0,0,0,559.7,59.64a65.21,65.21,0,0,0,2.35-13.92A48.68,48.68,0,0,0,560.52,30.77ZM510.94,17.25a.94.94,0,0,1-.08.33c0-.12,0-.22,0-.32L511,17A.81.81,0,0,1,510.94,17.25Z"/><g class="cls-3"><path class="cls-4" d="M543.33,41.61c.72,33.12-36,76.32-64.8,102.24S449,191.37,461.25,203.61c.31.31.59.61.85.9a18.69,18.69,0,0,1-4.77-2.09,24.09,24.09,0,0,1-6.12-5.51l-1.15-1.57c-.39-.53-.68-1.07-1-1.61a36,36,0,0,1-1.74-3.29c-.52-1.11-.92-2.2-1.38-3.33a21.42,21.42,0,0,1-1-4.36,23.55,23.55,0,0,1,.6-8.6A40.77,40.77,0,0,1,452,161c5.25-7.37,11.18-13.24,17-19,11.81-11.31,23.73-21.69,34.65-32.74,5.46-5.51,10.64-11.18,15.43-17a143.8,143.8,0,0,0,12.8-18.33,100,100,0,0,0,5-9.72,75.41,75.41,0,0,0,3.69-9.89,45.09,45.09,0,0,0,1.79-9.68q.07-1,.09-1.89Z"/></g><path class="cls-7" d="M116.6,174.15a40.57,40.57,0,0,0-6.46-13.2c-5.25-7.37-11.18-13.24-17-19-11.8-11.31-23.73-21.69-34.65-32.74C53,103.73,47.81,98.06,43,92.2a144.82,144.82,0,0,1-12.8-18.33q-2.41-4.16-4.4-8.47c-.2-.42-.39-.83-.57-1.25a76.87,76.87,0,0,1-3.69-9.89,46.35,46.35,0,0,1-1.79-9.68,28.94,28.94,0,0,1,.61-8.87,22.25,22.25,0,0,1,3.4-7.47,23.18,23.18,0,0,1,6.16-5.86,30.49,30.49,0,0,1,8.3-3.81,29.23,29.23,0,0,1,8.92-1.16,14.38,14.38,0,0,1,3.51.56l.62.22c0,.29,0,.62,0,1a44.23,44.23,0,0,1-.42,5.15c-.46,3.74-1.11,7.76-1.61,12A60.6,60.6,0,0,0,49,49.83a25.25,25.25,0,0,0,2.1,7.75,16.87,16.87,0,0,0,5.93,7,18.61,18.61,0,0,0,7.91,2.86,29.87,29.87,0,0,0,7.2,0c9-1.15,16.63-4.28,24.06-7.74a3,3,0,0,0-2-5.57h0c-3.84.94-7.66,1.84-11.46,2.44a52.32,52.32,0,0,1-11,.92,21.76,21.76,0,0,1-4.76-.67,7.51,7.51,0,0,1-3.11-1.63,5.1,5.1,0,0,1-1.37-2.37A15,15,0,0,1,62,48.88a51.61,51.61,0,0,1,1.42-10.33c.78-3.7,1.81-7.51,2.7-11.66a62,62,0,0,0,1.09-6.75A28.27,28.27,0,0,0,67.31,16l-.1-1.2c-.06-.52-.19-1.18-.32-1.76a17.81,17.81,0,0,0-.56-1.75c-.23-.56-.49-1.11-.77-1.64a15.55,15.55,0,0,0-4.2-4.78,20.91,20.91,0,0,0-3.21-2c-.41-.2-.82-.39-1.22-.56A30.09,30.09,0,0,0,48.78.27a43.9,43.9,0,0,0-14.89.9A47.14,47.14,0,0,0,20.14,6.62,41.8,41.8,0,0,0,8.59,16.76a39.52,39.52,0,0,0-7,14C1.28,32,1,33.16.79,34.36A48.69,48.69,0,0,0,.07,45.72,64,64,0,0,0,2.42,59.64,103.49,103.49,0,0,0,13,83.91a147.73,147.73,0,0,0,14.83,20.88A221.53,221.53,0,0,0,45,123c5.95,5.72,12.13,11.07,18.26,16.32s12.34,10.3,18.27,15.4c3,2.54,5.88,5.1,8.61,7.71a88.15,88.15,0,0,1,7.55,7.92,28.53,28.53,0,0,1,4.85,7.83c0,.14.1.28.14.41a9.4,9.4,0,0,1,.48,2.86A9.9,9.9,0,0,1,103,183c-.23.75-.43,1.57-.69,2.31a21.26,21.26,0,0,1-.84,2.12,17.09,17.09,0,0,1-1,1.91A11.76,11.76,0,0,1,98,192.11a7.1,7.1,0,0,1-2.93,1.43,8.2,8.2,0,0,1-3.56,0A11.35,11.35,0,0,1,86,190.51a9.59,9.59,0,0,1-1.18-1.37,8,8,0,0,1-1.3-7.49l.07-.18a3.83,3.83,0,0,0-7-3.1,15.36,15.36,0,0,0-2,7.74,17.5,17.5,0,0,0,1.7,7.2q.12.28.27.57a21.43,21.43,0,0,0,11.66,10.17,19.63,19.63,0,0,0,8.3,1.12,19.2,19.2,0,0,0,8.21-2.75,23.76,23.76,0,0,0,6.12-5.51l1.16-1.57c.39-.53.67-1.07,1-1.61a36,36,0,0,0,1.74-3.29c.52-1.11.92-2.2,1.38-3.33a20.77,20.77,0,0,0,1-4.36A23.55,23.55,0,0,0,116.6,174.15ZM51.15,17l.06.3c0,.1,0,.21,0,.33a1,1,0,0,1-.08-.34A.52.52,0,0,1,51.15,17Z"/><g class="cls-3"><path class="cls-4" d="M117.2,182.75a20.77,20.77,0,0,1-1,4.36c-.46,1.13-.86,2.22-1.38,3.33a36,36,0,0,1-1.74,3.29c-.34.54-.62,1.08-1,1.61l-1.16,1.57a23.76,23.76,0,0,1-6.12,5.51,19.2,19.2,0,0,1-8.21,2.75,19.63,19.63,0,0,1-8.3-1.12,21.43,21.43,0,0,1-11.66-10.17q-.15-.28-.27-.57c1.51-1.89,5.32-2.14,9.64-2.8a11.35,11.35,0,0,0,5.54,3.05,8.2,8.2,0,0,0,3.56,0A7.1,7.1,0,0,0,98,192.11a11.76,11.76,0,0,0,2.43-2.82,17.09,17.09,0,0,0,1-1.91,21.26,21.26,0,0,0,.84-2.12c.26-.74.46-1.56.69-2.31a9.9,9.9,0,0,0,.15-1.52,9.4,9.4,0,0,0-.48-2.86c1.65-8.56-8.85-18.12-24.43-38.32-16.2-21-44.41-47-52.39-74.85q2,4.3,4.4,8.47A144.82,144.82,0,0,0,43,92.2c4.79,5.86,10,11.53,15.43,17C69.37,120.29,81.3,130.67,93.1,142c5.86,5.73,11.79,11.6,17,19a40.57,40.57,0,0,1,6.46,13.2A23.55,23.55,0,0,1,117.2,182.75Z"/></g><path class="cls-7" d="M364.22,750.07v11.16a13.5,13.5,0,0,1-.1,1.57,11.71,11.71,0,0,1-11.6,10.13H207.44a11.7,11.7,0,0,1-11.7-11.7V750.07a11.7,11.7,0,0,1,11.7-11.7H352.52A11.7,11.7,0,0,1,364.22,750.07Z"/><g class="cls-3"><path class="cls-4" d="M364.22,750.07v11.16a13.5,13.5,0,0,1-.1,1.57l-116,4.57s-11.52-10.08,28.8-10.08c32.69,0,55.92-13.73,50.49-18.92h25.1A11.7,11.7,0,0,1,364.22,750.07Z"/></g><g class="cls-5"><path class="cls-6" d="M224.48,738.37c-8.4,2.67-18.41,9-18.83,24L195.74,760v-10a11.7,11.7,0,0,1,11.7-11.7Z"/></g><path class="cls-2" d="M343.7,473.41c-21.6,104.76-40,164.16-40,164.16H258.38s-18.36-59.4-40-164.16-15.12-145.8-11.88-145.8,27-18.36,32.4-21.6h84.24c2.07,1.24,6.85,4.72,12.14,8.53,8.48,6.1,18.26,13.07,20.26,13.07C358.82,327.61,365.3,368.65,343.7,473.41Z"/><g class="cls-3"><path class="cls-4" d="M343.7,473.41c-21.6,104.76-40,164.16-40,164.16h-4.6c17.76-72.1,27.82-279.35,13.43-318.4l22.75-4.63c8.48,6.1,18.26,13.07,20.26,13.07C358.82,327.61,365.3,368.65,343.7,473.41Z"/></g><g class="cls-5"><path class="cls-6" d="M220.77,340.77c-27.91,8,10.8,182.52,31.68,262.44s-23.49-148.4-18-193.68C240.21,362,230.85,337.89,220.77,340.77Z"/></g><path class="cls-7" d="M355.58,327.61s-6.06,6.05-40.22,7.46c-9.23.39-20.52.43-34.3-.07-24,.88-40.51.09-51.7-1.26-19-2.27-22.82-6.13-22.82-6.13,14-22.68,11.88-34.56,11.88-34.56,25-11.44,28.89-22.89,26.25-34.33-.1-.43-.21-.87-.33-1.31-3.24-11.88-3.24-6.48,24.84-14h23.76c23.86,6.43,27.45,3.49,26,9.76-.25,1.11-.66,2.5-1.15,4.28-3.24,11.88,0,23.76,25.92,35.64C343.7,293.05,341.54,304.93,355.58,327.61Z"/><g class="cls-5"><path class="cls-6" d="M251.49,276.33c-1,15.84-22.08,20.64-22.08,20.64s-6.09,13.91,0,36.77c-19-2.27-22.82-6.13-22.82-6.13,14-22.68,11.88-34.56,11.88-34.56,25-11.44,28.89-22.89,26.25-34.33C249,261.34,252,267.49,251.49,276.33Z"/></g><g class="cls-3"><path class="cls-4" d="M315.36,335.07c2.91-8,4.15-35.27-20.07-34.26a175.79,175.79,0,0,1-46-4.21c8.11,1.81,34.34-4.49,46-7.67,11.88-3.24-14-11.88-3.24-31.32l26.88-4.48c-.25,1.11-.66,2.5-1.15,4.28-3.24,11.88,0,23.76,25.92,35.64,0,0-2.16,11.88,11.88,34.56C355.58,327.61,349.52,333.66,315.36,335.07Z"/></g><path class="cls-2" d="M281.05,3.61h0A204.12,204.12,0,0,1,485.17,207.73v34.74a20.34,20.34,0,0,1-20.34,20.34H97.27a20.34,20.34,0,0,1-20.34-20.34V207.73A204.12,204.12,0,0,1,281.05,3.61Z" transform="translate(562.11 266.43) rotate(180)"/><path class="cls-2" d="M485.18,37.09v21.6a204.61,204.61,0,0,1-6.13,49.83c-22.24,88.65-102.45,154.29-198,154.29a203.54,203.54,0,0,1-69.18-12A203.89,203.89,0,0,1,76.94,58.69V37.09A33.48,33.48,0,0,1,110.42,3.61H451.7A33.48,33.48,0,0,1,485.18,37.09Z"/><path class="cls-7" d="M485.18,14.05V99a10.45,10.45,0,0,1-6.13,9.51,10.32,10.32,0,0,1-4.31.93H87.38a10.32,10.32,0,0,1-4.31-.93A10.43,10.43,0,0,1,76.94,99v-85A10.43,10.43,0,0,1,87.38,3.61H474.74A10.44,10.44,0,0,1,485.18,14.05Z"/><path class="cls-2" d="M387.26,770.07v11.16a11.57,11.57,0,0,1-.94,4.6,11.7,11.7,0,0,1-10.76,7.1H184.4a11.69,11.69,0,0,1-10.76-7.1,11.57,11.57,0,0,1-.94-4.6V770.07a11.7,11.7,0,0,1,11.7-11.7H375.56A11.7,11.7,0,0,1,387.26,770.07Z"/><g class="cls-3"><path class="cls-4" d="M387.26,770.07v11.16a11.57,11.57,0,0,1-.94,4.6c-54.49-.55-163.31-2-119.47-4.78s69-16.35,66.32-22.68h42.39A11.7,11.7,0,0,1,387.26,770.07Z"/></g><g class="cls-5"><path class="cls-6" d="M206.8,758.37c-21,1.44-23,6.79-24.91,24.84l-8.25,2.62a11.57,11.57,0,0,1-.94-4.6V770.07a11.7,11.7,0,0,1,11.7-11.7Z"/></g><path class="cls-7" d="M413.18,790.07v11.16a11.7,11.7,0,0,1-11.7,11.7h-243a11.7,11.7,0,0,1-11.7-11.7V790.07a11.7,11.7,0,0,1,11.7-11.7h243A11.7,11.7,0,0,1,413.18,790.07Z"/><g class="cls-3"><path class="cls-4" d="M413.18,790.07v11.16a11.7,11.7,0,0,1-11.7,11.7H348.55c-31.4-2.89-53.17-6.12-25.54-8.12,57.26-4.14,70.89-24.15,53.56-26.44h24.91A11.7,11.7,0,0,1,413.18,790.07Z"/></g><g class="cls-5"><path class="cls-6" d="M233.36,778.37c-8.94,1.12-25.59,2.91-43.55,3.4-26.64.72-32.4,7.92-30.24,22.32l-8.91,5.84a11.66,11.66,0,0,1-3.88-8.7V790.07a11.7,11.7,0,0,1,11.7-11.7Z"/></g><path class="cls-2" d="M451.7,820.57v99.36a17.28,17.28,0,0,1-17.28,17.28H127.7a17.27,17.27,0,0,1-17.28-17.28V820.57a17.28,17.28,0,0,1,17.28-17.28H434.42a17.28,17.28,0,0,1,17.28,17.28Z"/><path class="cls-7" d="M412.23,855.13v30.24A17.28,17.28,0,0,1,395,902.65H167.16a17.28,17.28,0,0,1-17.28-17.28V855.13a17.28,17.28,0,0,1,17.28-17.28H395a17.27,17.27,0,0,1,17.28,17.28Z"/><g class="cls-5"><path class="cls-6" d="M58.15,2.93c-1.5,1.33-4.23,2.12-8.74,2-20.88-.72-25.2,13-42.48,25.92A23.13,23.13,0,0,1,.79,34.36c.22-1.2.49-2.4.81-3.59a39.52,39.52,0,0,1,7-14A41.8,41.8,0,0,1,20.14,6.62,47.14,47.14,0,0,1,33.89,1.17,43.9,43.9,0,0,1,48.78.27a30.09,30.09,0,0,1,8.15,2.1C57.33,2.54,57.74,2.73,58.15,2.93Z"/></g><g class="cls-5"><path class="cls-6" d="M559,26.21a13.46,13.46,0,0,1-3.41-2.6c-14.4-14.4-33.84-15.12-54-13.68a27.38,27.38,0,0,1-5.11,0,2,2,0,0,1,.1-.21,15.42,15.42,0,0,1,4.2-4.78,21,21,0,0,1,4.42-2.53,30.15,30.15,0,0,1,8.16-2.1,43.84,43.84,0,0,1,14.88.9A47.14,47.14,0,0,1,542,6.62a41.83,41.83,0,0,1,11.56,10.14A39.19,39.19,0,0,1,559,26.21Z"/></g><g class="cls-5"><path class="cls-6" d="M448.88,811.11c-19.39-2.78-312.58-4.63-323.87,6.66-10.42,10.42-13.77,77.4-7.39,116.2a17.27,17.27,0,0,1-7.2-14V820.57a17.28,17.28,0,0,1,17.28-17.28H434.42A17.26,17.26,0,0,1,448.88,811.11Z"/></g><g class="cls-3"><path class="cls-4" d="M451.7,863.21v56.72a17.28,17.28,0,0,1-17.28,17.28h-33c1.68-.24,3.37-.45,5.07-.64C438.84,933,448.86,894,451.7,863.21Z"/></g><g class="cls-3"><path class="cls-4" d="M177.53,902.65H167.16a17.28,17.28,0,0,1-17.28-17.28V855.13a17.28,17.28,0,0,1,17.28-17.28H395a17.3,17.3,0,0,1,14.81,8.37c-32.45-3.51-224-3.28-236.51,6.11C160.88,861.61,161.93,883.5,177.53,902.65Z"/></g><g class="cls-3"><path class="cls-4" d="M485.18,14.05V99a10.45,10.45,0,0,1-6.13,9.51c-22.24,88.65-102.45,154.29-198,154.29a203.54,203.54,0,0,1-69.18-12l.25-.37c54.72,21.6,165.6-5.76,159.84-70.56-5.26-59.23-133.25-69.13-155.21-70.4-2.06-.12-3.19-.16-3.19-.16H366.21s15.66-57.93,4.25-105.68H474.74A10.44,10.44,0,0,1,485.18,14.05Z"/></g><g class="cls-5"><path class="cls-6" d="M123.49,109.45H87.38a10.32,10.32,0,0,1-4.31-.93A10.43,10.43,0,0,1,76.94,99v-85A10.43,10.43,0,0,1,87.38,3.61H327.84c-81.78,2-196.45,5.87-208.59,28.28-14,25.92-4.32,74.52,16.2,75.6C143.56,107.92,135.82,108.68,123.49,109.45Z"/></g><g class="cls-5"><path class="cls-6" d="M433.05,115.1c-10,62.59-43.08,102.19-67.56,118.75,0,0,61.92-18,91-90.28,4.38-10.87,3.87-20.75,3-28.47Z"/></g><g class="cls-5"><path class="cls-6" d="M434.61,101.37s2.16-79.62-1.44-85.14-26.64-9.46-26.64-9.46,54.72-2.37,63.36,3.94-.72,89.88-.72,89.88Z"/></g></g></g></g></svg>
